<svg width="248" height="32" viewBox="0 0 248 32" fill="none" xmlns="http://www.w3.org/2000/svg">
<rect y="0.615234" width="30.7692" height="30.7692" fill="white" fill-opacity="0.01"/>
<path d="M2.49836 5.63034C2.52905 5.07787 3.11551 4.73753 3.61042 4.98498L9.81033 8.08494C10.0813 8.22042 10.2475 8.50231 10.2349 8.80499L9.63415 23.2227C9.62214 23.5109 9.44986 23.7682 9.18793 23.8891L2.4426 27.0023C1.91597 27.2454 1.32003 26.8404 1.3522 26.2612L2.49836 5.63034Z" fill="#007AFF"/>
<path d="M28.2692 5.63034C28.2385 5.07787 27.6521 4.73753 27.1572 4.98498L20.9572 8.08494C20.6863 8.22042 20.5201 8.50231 20.5327 8.80499L21.1334 23.2227C21.1454 23.5109 21.3177 23.7682 21.5796 23.8891L28.325 27.0023C28.8516 27.2454 29.4476 26.8404 29.4154 26.2612L28.2692 5.63034Z" fill="#FDAD15"/>
<path d="M11.4979 9.29911C11.5165 8.83409 12.0088 8.54325 12.425 8.75138L14.8103 9.94402C15.1712 10.1245 15.5961 10.1245 15.957 9.94402L18.3423 8.75138C18.7585 8.54325 19.2509 8.83409 19.2695 9.29911L19.8432 23.6413C19.8604 24.0731 19.659 24.4846 19.3073 24.7358L15.8308 27.219C15.5633 27.4101 15.204 27.4101 14.9366 27.219L11.46 24.7358C11.1083 24.4846 10.9069 24.0731 10.9242 23.6413L11.4979 9.29911Z" fill="#2AC670"/>
<path d="M50.3535 25.24C49.3775 25.24 48.4815 25.12 47.6655 24.88C46.8495 24.624 46.1135 24.248 45.4575 23.752C44.8015 23.256 44.2175 22.656 43.7055 21.952L45.7455 19.648C46.5295 20.736 47.2975 21.488 48.0495 21.904C48.8015 22.32 49.6495 22.528 50.5935 22.528C51.1375 22.528 51.6335 22.448 52.0815 22.288C52.5295 22.112 52.8815 21.88 53.1375 21.592C53.3935 21.288 53.5215 20.944 53.5215 20.56C53.5215 20.288 53.4655 20.04 53.3535 19.816C53.2575 19.576 53.1055 19.368 52.8975 19.192C52.6895 19 52.4335 18.824 52.1295 18.664C51.8255 18.504 51.4815 18.368 51.0975 18.256C50.7135 18.144 50.2895 18.04 49.8255 17.944C48.9455 17.768 48.1775 17.536 47.5215 17.248C46.8655 16.944 46.3135 16.576 45.8655 16.144C45.4175 15.696 45.0895 15.2 44.8815 14.656C44.6735 14.096 44.5695 13.464 44.5695 12.76C44.5695 12.056 44.7215 11.408 45.0255 10.816C45.3455 10.224 45.7775 9.712 46.3215 9.28C46.8655 8.848 47.4975 8.512 48.2175 8.272C48.9375 8.032 49.7135 7.912 50.5455 7.912C51.4895 7.912 52.3295 8.024 53.0655 8.248C53.8175 8.472 54.4735 8.808 55.0335 9.256C55.6095 9.688 56.0815 10.216 56.4495 10.84L54.3855 12.88C54.0655 12.384 53.7055 11.976 53.3055 11.656C52.9055 11.32 52.4735 11.072 52.0095 10.912C51.5455 10.736 51.0575 10.648 50.5455 10.648C49.9695 10.648 49.4655 10.728 49.0335 10.888C48.6175 11.048 48.2895 11.28 48.0495 11.584C47.8095 11.872 47.6895 12.224 47.6895 12.64C47.6895 12.96 47.7615 13.248 47.9055 13.504C48.0495 13.744 48.2495 13.96 48.5055 14.152C48.7775 14.344 49.1215 14.512 49.5375 14.656C49.9535 14.8 50.4255 14.928 50.9535 15.04C51.8335 15.216 52.6255 15.456 53.3295 15.76C54.0335 16.048 54.6335 16.4 55.1295 16.816C55.6255 17.216 56.0015 17.68 56.2575 18.208C56.5135 18.72 56.6415 19.296 56.6415 19.936C56.6415 21.04 56.3775 21.992 55.8495 22.792C55.3375 23.576 54.6095 24.184 53.6655 24.616C52.7215 25.032 51.6175 25.24 50.3535 25.24ZM64.9444 25L58.2244 8.2H61.6324L65.3764 17.824C65.5684 18.32 65.7364 18.768 65.8804 19.168C66.0244 19.552 66.1524 19.904 66.2644 20.224C66.3764 20.544 66.4724 20.856 66.5524 21.16C66.6484 21.464 66.7524 21.784 66.8644 22.12H66.1924C66.3044 21.688 66.4244 21.264 66.5524 20.848C66.6804 20.416 66.8244 19.96 66.9844 19.48C67.1604 19 67.3684 18.448 67.6084 17.824L71.1124 8.2H74.5444L67.7764 25H64.9444ZM89.5879 25.24C88.6119 25.24 87.7159 25.12 86.8999 24.88C86.0839 24.624 85.3479 24.248 84.6919 23.752C84.0359 23.256 83.4519 22.656 82.9399 21.952L84.9799 19.648C85.7639 20.736 86.5319 21.488 87.2839 21.904C88.0359 22.32 88.8839 22.528 89.8279 22.528C90.3719 22.528 90.8679 22.448 91.3159 22.288C91.7639 22.112 92.1159 21.88 92.3719 21.592C92.6279 21.288 92.7559 20.944 92.7559 20.56C92.7559 20.288 92.6999 20.04 92.5879 19.816C92.4919 19.576 92.3399 19.368 92.1319 19.192C91.9239 19 91.6679 18.824 91.3639 18.664C91.0599 18.504 90.7159 18.368 90.3319 18.256C89.9479 18.144 89.5239 18.04 89.0599 17.944C88.1799 17.768 87.4119 17.536 86.7559 17.248C86.0999 16.944 85.5479 16.576 85.0999 16.144C84.6519 15.696 84.3239 15.2 84.1159 14.656C83.9079 14.096 83.8039 13.464 83.8039 12.76C83.8039 12.056 83.9559 11.408 84.2599 10.816C84.5799 10.224 85.0119 9.712 85.5559 9.28C86.0999 8.848 86.7319 8.512 87.4519 8.272C88.1719 8.032 88.9479 7.912 89.7799 7.912C90.7239 7.912 91.5639 8.024 92.2999 8.248C93.0519 8.472 93.7079 8.808 94.2679 9.256C94.8439 9.688 95.3159 10.216 95.6839 10.84L93.6199 12.88C93.2999 12.384 92.9399 11.976 92.5399 11.656C92.1399 11.32 91.7079 11.072 91.2439 10.912C90.7799 10.736 90.2919 10.648 89.7799 10.648C89.2039 10.648 88.6999 10.728 88.2679 10.888C87.8519 11.048 87.5239 11.28 87.2839 11.584C87.0439 11.872 86.9239 12.224 86.9239 12.64C86.9239 12.96 86.9959 13.248 87.1399 13.504C87.2839 13.744 87.4839 13.96 87.7399 14.152C88.0119 14.344 88.3559 14.512 88.7719 14.656C89.1879 14.8 89.6599 14.928 90.1879 15.04C91.0679 15.216 91.8599 15.456 92.5639 15.76C93.2679 16.048 93.8679 16.4 94.3639 16.816C94.8599 17.216 95.2359 17.68 95.4919 18.208C95.7479 18.72 95.8759 19.296 95.8759 19.936C95.8759 21.04 95.6119 21.992 95.0839 22.792C94.5719 23.576 93.8439 24.184 92.8999 24.616C91.9559 25.032 90.8519 25.24 89.5879 25.24ZM100.147 25V9.136H103.099V25H100.147ZM97.6508 15.088V12.352H105.859V15.088H97.6508ZM112.766 25.24C111.726 25.24 110.782 24.952 109.934 24.376C109.086 23.8 108.406 23.016 107.894 22.024C107.382 21.032 107.126 19.904 107.126 18.64C107.126 17.376 107.382 16.248 107.894 15.256C108.406 14.264 109.102 13.488 109.982 12.928C110.862 12.368 111.854 12.088 112.958 12.088C113.598 12.088 114.182 12.184 114.71 12.376C115.238 12.552 115.702 12.808 116.102 13.144C116.502 13.48 116.83 13.864 117.086 14.296C117.358 14.728 117.542 15.192 117.638 15.688L116.99 15.52V12.352H119.966V25H116.966V21.976L117.662 21.856C117.55 22.288 117.342 22.712 117.038 23.128C116.75 23.528 116.382 23.888 115.934 24.208C115.502 24.512 115.014 24.76 114.47 24.952C113.942 25.144 113.374 25.24 112.766 25.24ZM113.582 22.624C114.27 22.624 114.878 22.456 115.406 22.12C115.934 21.784 116.342 21.32 116.63 20.728C116.934 20.12 117.086 19.424 117.086 18.64C117.086 17.872 116.934 17.192 116.63 16.6C116.342 16.008 115.934 15.544 115.406 15.208C114.878 14.872 114.27 14.704 113.582 14.704C112.894 14.704 112.286 14.872 111.758 15.208C111.246 15.544 110.846 16.008 110.558 16.6C110.27 17.192 110.126 17.872 110.126 18.64C110.126 19.424 110.27 20.12 110.558 20.728C110.846 21.32 111.246 21.784 111.758 22.12C112.286 22.456 112.894 22.624 113.582 22.624ZM128.812 25.24C127.628 25.24 126.564 24.952 125.62 24.376C124.676 23.8 123.932 23.016 123.388 22.024C122.844 21.032 122.572 19.912 122.572 18.664C122.572 17.416 122.844 16.296 123.388 15.304C123.932 14.312 124.676 13.528 125.62 12.952C126.564 12.376 127.628 12.088 128.812 12.088C129.948 12.088 130.98 12.304 131.908 12.736C132.836 13.168 133.556 13.768 134.068 14.536L132.436 16.504C132.196 16.168 131.892 15.864 131.524 15.592C131.156 15.32 130.764 15.104 130.348 14.944C129.932 14.784 129.516 14.704 129.1 14.704C128.396 14.704 127.764 14.88 127.204 15.232C126.66 15.568 126.228 16.04 125.908 16.648C125.588 17.24 125.428 17.912 125.428 18.664C125.428 19.416 125.588 20.088 125.908 20.68C126.244 21.272 126.692 21.744 127.252 22.096C127.812 22.448 128.436 22.624 129.124 22.624C129.54 22.624 129.94 22.56 130.324 22.432C130.724 22.288 131.1 22.088 131.452 21.832C131.804 21.576 132.132 21.256 132.436 20.872L134.068 22.864C133.524 23.568 132.772 24.144 131.812 24.592C130.868 25.024 129.868 25.24 128.812 25.24ZM139.086 21.136L138.51 18.376L144.51 12.352H148.446L139.086 21.136ZM136.326 25V7.24H139.278V25H136.326ZM144.87 25L140.214 19.36L142.302 17.584L148.518 25H144.87Z" fill="black"/>
</svg>
