<svg width="32" height="32" viewBox="0 0 32 32" fill="none" xmlns="http://www.w3.org/2000/svg">
<circle cx="14.9183" cy="15.3524" r="12.3148" stroke="#FF5A5A" stroke-width="1.94444"/>
<path d="M14.9193 20.5374C12.7715 20.5374 11.0304 18.7962 11.0304 16.6485V14.0559M14.9193 20.5374C17.067 20.5374 18.8082 18.7962 18.8082 16.6485V14.0559M14.9193 20.5374V14.0559M18.8082 14.0559C18.8082 11.9081 17.067 10.167 14.9193 10.167C12.7715 10.167 11.0304 11.9081 11.0304 14.0559M18.8082 14.0559H11.0304M18.9008 15.3522H20.7526M9.08594 15.3522H11.0304M18.8082 18.5929L20.1045 19.2411M11.0304 18.5929L9.73409 19.2411M18.8082 12.1114L20.1045 11.4633M11.0304 12.1114L9.73409 11.4633" stroke="#FF5A5A" stroke-width="1.94444" stroke-linecap="round"/>
<path d="M25.9375 26.3706L28.5301 28.9632" stroke="#FF5A5A" stroke-width="1.94444" stroke-linecap="round"/>
</svg>
