<svg width="32" height="32" viewBox="0 0 32 32" fill="none" xmlns="http://www.w3.org/2000/svg">
<path d="M11.5681 18.667H5.34147C3.8748 18.667 2.6748 19.867 2.6748 21.3337V29.3337H11.5681V18.667Z" stroke="#007AFF" stroke-width="1.94444" stroke-miterlimit="10" stroke-linecap="round" stroke-linejoin="round"/>
<path d="M17.7823 13.334H14.2223C12.7557 13.334 11.5557 14.534 11.5557 16.0007V29.334H20.449V16.0007C20.449 14.534 19.2623 13.334 17.7823 13.334Z" stroke="#007AFF" stroke-width="1.94444" stroke-miterlimit="10" stroke-linecap="round" stroke-linejoin="round"/>
<path d="M26.6749 22.6675H20.4482V29.3341H29.3416V25.3341C29.3416 23.8675 28.1416 22.6675 26.6749 22.6675Z" stroke="#007AFF" stroke-width="1.94444" stroke-miterlimit="10" stroke-linecap="round" stroke-linejoin="round"/>
<path d="M16.7024 2.75928L17.4091 4.17261C17.5024 4.37261 17.7558 4.55927 17.9691 4.58594L19.2491 4.79927C20.0624 4.93261 20.2624 5.53258 19.6758 6.10591L18.6758 7.10591C18.5024 7.27925 18.4091 7.59926 18.4624 7.82593L18.7424 9.05261C18.9691 10.0259 18.4491 10.3993 17.5958 9.89262L16.3958 9.18595C16.1824 9.05262 15.8224 9.05262 15.6091 9.18595L14.4091 9.89262C13.5558 10.3993 13.0358 10.0259 13.2624 9.05261L13.5424 7.82593C13.5958 7.59926 13.5024 7.26591 13.3291 7.10591L12.3424 6.11926C11.7558 5.53259 11.9424 4.94591 12.7691 4.81258L14.0491 4.59928C14.2624 4.55928 14.5158 4.37262 14.6091 4.18595L15.3158 2.77258C15.7024 1.99925 16.3158 1.99928 16.7024 2.75928Z" stroke="#007AFF" stroke-width="1.94444" stroke-linecap="round" stroke-linejoin="round"/>
</svg>
