<svg width="32" height="32" viewBox="0 0 32 32" fill="none" xmlns="http://www.w3.org/2000/svg">
<path d="M6.63779 12.9131C3.98994 11.854 2.66602 11.3244 2.66602 10.6663C2.66602 10.0083 3.98994 9.47871 6.63779 8.41957L10.3824 6.92172C13.0303 5.86258 14.3542 5.33301 15.9993 5.33301C17.6445 5.33301 18.9684 5.86258 21.6163 6.92172L25.3609 8.41957C28.0088 9.47871 29.3327 10.0083 29.3327 10.6663C29.3327 11.3244 28.0088 11.854 25.3609 12.9131L21.6163 14.411C18.9684 15.4701 17.6445 15.9997 15.9993 15.9997C14.3542 15.9997 13.0303 15.4701 10.3824 14.411L6.63779 12.9131Z" stroke="#BA861F" stroke-width="2"/>
<path d="M7.68752 13.333L6.63779 13.7529C3.98994 14.812 2.66602 15.3416 2.66602 15.9997C2.66602 16.6577 3.98994 17.1873 6.63779 18.2464L10.3824 19.7443C13.0303 20.8034 14.3542 21.333 15.9993 21.333C17.6445 21.333 18.9684 20.8034 21.6163 19.7443L25.3609 18.2464C28.0088 17.1873 29.3327 16.6577 29.3327 15.9997C29.3327 15.3416 28.0088 14.812 25.3609 13.7529L24.3112 13.333" stroke="#BA861F" stroke-width="2"/>
<path d="M7.68752 18.667L6.63779 19.0869C3.98994 20.146 2.66602 20.6756 2.66602 21.3337C2.66602 21.9917 3.98994 22.5213 6.63779 23.5804L10.3824 25.0783C13.0303 26.1374 14.3542 26.667 15.9993 26.667C17.6445 26.667 18.9684 26.1374 21.6163 25.0783L25.3609 23.5804C28.0088 22.5213 29.3327 21.9917 29.3327 21.3337C29.3327 20.6756 28.0088 20.146 25.3609 19.0869L24.3112 18.667" stroke="#BA861F" stroke-width="2"/>
</svg>
