<svg width="32" height="32" viewBox="0 0 32 32" fill="none" xmlns="http://www.w3.org/2000/svg">
<path d="M29.3327 29.334L2.66602 29.334" stroke="#1EA159" stroke-width="1.94444" stroke-linecap="round"/>
<path d="M4 29.3334V15.1297C4 13.9871 4.48859 12.8991 5.34254 12.14L13.3425 5.02892C14.8581 3.68177 17.1419 3.68177 18.6575 5.02892L26.6575 12.14C27.5114 12.8991 28 13.9871 28 15.1297V29.3334" stroke="#1EA159" stroke-width="1.94444" stroke-linecap="round"/>
<path d="M13.332 12.0005H18.6654" stroke="#1EA159" stroke-width="1.94444" stroke-linecap="round"/>
<path d="M12 20.667H20" stroke="#1EA159" stroke-width="1.94444" stroke-linecap="round"/>
<path d="M12 24.667H20" stroke="#1EA159" stroke-width="1.94444" stroke-linecap="round"/>
<path d="M24 29.3338V21.3338C24 18.8197 24 17.5626 23.219 16.7815C22.4379 16.0005 21.1808 16.0005 18.6667 16.0005H13.3333C10.8192 16.0005 9.5621 16.0005 8.78105 16.7815C8 17.5626 8 18.8197 8 21.3338V29.3338" stroke="#1EA159" stroke-width="1.94444"/>
</svg>
